<?xml version="1.0" encoding="utf-8"?>
<!-- Generator: Adobe Illustrator 16.0.0, SVG Export Plug-In . SVG Version: 6.00 Build 0)  -->
<!DOCTYPE svg PUBLIC "-//W3C//DTD SVG 1.1//EN" "http://www.w3.org/Graphics/SVG/1.1/DTD/svg11.dtd">
<svg version="1.1" id="Layer_1" xmlns="http://www.w3.org/2000/svg"
	xmlns:xlink="http://www.w3.org/1999/xlink" x="0px" y="0px"
	width="612px" height="792px" viewBox="0 0 612 792" enable-background="new 0 0 612 792"
	xml:space="preserve">
<g>
	<g>
		<path fill-rule="evenodd" clip-rule="evenodd" fill="#FFFFFF" d="M-53.52,36.48c240,0,480,0,720,0c0,240,0,480,0.001,720
			c-240.001,0-480,0-720.001,0C-53.52,516.48-53.52,276.48-53.52,36.48z M254.325,241.962c-0.735,0.774-1.219,1.303-1.723,1.811
			c-5.35,5.397-10.713,10.782-16.053,16.188c-24.958,25.27-49.952,50.502-74.849,75.831c-23.102,23.502-46.088,47.118-69.152,70.658
			c-2.433,2.483-3.614,5.335-3.657,8.811c-0.089,7.097,1.811,13.753,4.262,20.296c9.031,24.103,21.91,46.002,37.861,66.146
			c9.651,12.188,20.342,23.433,31.238,34.488c15.686,15.917,32.229,30.874,50.051,44.385c10.942,8.296,22.497,15.544,35.352,20.545
			c9.658,3.757,19.574,5.829,30.023,4.78c4.51-0.453,8.175-2.196,11.394-5.426c12.875-12.918,25.865-25.722,38.82-38.56
			c27.842-27.59,55.693-55.17,83.53-82.766c12.839-12.728,25.652-25.481,38.48-38.221c0.543-0.538,1.122-1.039,1.667-1.541
			c0.475,0.327,0.739,0.503,0.998,0.689c8.272,5.965,18.308,5.257,25.589-1.845c2.978-2.904,5.9-5.866,8.83-8.818
			c2.175-2.191,3.832-4.734,4.727-7.696c2.219-7.353,0.695-13.904-4.457-19.578c-1.656-1.825-3.456-3.521-5.23-5.315
			c19.724-23.107,31.104-49.553,33.322-79.743c2.219-30.188-5.227-57.989-21.298-83.558c0.25-0.414,0.445-0.757,0.658-1.09
			c5.829-9.128,4.757-19.996-2.784-27.736c-3.014-3.094-6.064-6.155-9.165-9.162c-7.428-7.204-18.166-8.392-26.954-3.041
			c-0.6,0.365-1.216,0.705-1.796,1.04c-25.689-16.103-53.487-23.531-83.69-21.281c-30.166,2.248-56.569,13.671-79.663,33.373
			c-1.58-1.622-3.004-3.129-4.476-4.589c-8.122-8.058-19.959-8.166-28.165-0.227c-2.932,2.837-5.825,5.715-8.654,8.654
			c-7.739,8.039-7.661,19.852,0.154,27.809C251.025,238.813,252.6,240.284,254.325,241.962z"/>
		<path fill-rule="evenodd" clip-rule="evenodd" d="M254.325,241.962c-1.725-1.678-3.3-3.149-4.81-4.686
			c-7.815-7.958-7.894-19.77-0.154-27.809c2.829-2.939,5.723-5.817,8.654-8.654c8.205-7.939,20.043-7.832,28.165,0.227
			c1.471,1.46,2.896,2.967,4.476,4.589c23.093-19.702,49.497-31.125,79.663-33.373c30.203-2.25,58.001,5.178,83.69,21.281
			c0.58-0.335,1.196-0.674,1.796-1.04c8.788-5.352,19.526-4.164,26.954,3.041c3.101,3.007,6.151,6.068,9.165,9.162
			c7.541,7.74,8.613,18.607,2.784,27.736c-0.213,0.333-0.408,0.676-0.658,1.09c16.071,25.569,23.517,53.371,21.298,83.558
			c-2.219,30.19-13.599,56.636-33.322,79.743c1.774,1.795,3.574,3.49,5.23,5.315c5.152,5.674,6.676,12.226,4.457,19.578
			c-0.895,2.962-2.552,5.505-4.727,7.696c-2.93,2.952-5.853,5.914-8.83,8.818c-7.281,7.102-17.316,7.81-25.589,1.845
			c-0.259-0.187-0.523-0.362-0.998-0.689c-0.545,0.502-1.124,1.003-1.667,1.541c-12.828,12.739-25.642,25.493-38.48,38.221
			c-27.837,27.596-55.688,55.176-83.53,82.766c-12.955,12.838-25.945,25.642-38.82,38.56c-3.219,3.229-6.884,4.973-11.394,5.426
			c-10.45,1.049-20.365-1.023-30.023-4.78c-12.855-5.001-24.409-12.249-35.352-20.545c-17.822-13.511-34.365-28.468-50.051-44.385
			c-10.896-11.056-21.587-22.3-31.238-34.488c-15.951-20.145-28.83-42.044-37.861-66.146c-2.452-6.543-4.351-13.199-4.262-20.296
			c0.043-3.476,1.225-6.327,3.657-8.811c23.064-23.54,46.05-47.155,69.152-70.658c24.897-25.329,49.892-50.561,74.849-75.831
			c5.34-5.407,10.703-10.791,16.053-16.188C253.106,243.265,253.59,242.736,254.325,241.962z M261.664,254.861
			c-0.784,0.697-1.456,1.251-2.08,1.855c-4.598,4.448-9.261,8.832-13.765,13.375c-25.846,26.074-51.649,52.19-77.475,78.285
			c-18.173,18.363-36.359,36.714-54.537,55.073c-3.208,3.239-6.366,6.529-9.62,9.722c-2.12,2.08-2.787,4.332-1.603,7.156
			c0.863,2.06,1.448,4.234,2.239,6.327c2.484,6.574,4.597,13.328,7.586,19.666c11.887,25.197,28.163,47.365,47.523,67.309
			c13.601,14.011,28.026,27.161,42.472,40.286c6.75,6.133,13.477,12.289,20.967,17.537c10.587,7.417,21.75,13.764,33.937,18.182
			c5.609,2.034,11.407,3.072,17.396,2.962c2.272-0.041,4.197-0.717,5.773-2.436c1.35-1.472,2.842-2.812,4.258-4.223
			c25.21-25.13,50.42-50.26,75.625-75.394c11.386-11.354,22.747-22.729,34.144-34.071c14.796-14.727,29.725-29.325,43.663-44.886
			c0.396-0.441,0.741-0.928,1.142-1.433c-2.508-1.119-4.948-1.95-7.13-3.224c-18.353-10.703-35.611-22.936-51.7-36.842
			c-18.595-16.072-36.325-33.044-53.458-50.648c-14.912-15.321-28.911-31.429-41.612-48.648
			c-7.938-10.761-14.941-22.133-22.099-33.407C262.803,256.583,262.273,255.794,261.664,254.861z M262.061,206.551
			c-3.176,3.142-6.035,5.718-8.59,8.567c-2.647,2.951-3.547,6.532-2.831,10.501c0.583,3.228,2.378,5.693,4.625,7.941
			c62.96,62.951,125.915,125.907,188.872,188.861c1.239,1.238,2.5,2.454,3.755,3.676c2.921,2.844,5.685,5.875,8.806,8.479
			c3.935,3.285,9.257,3.531,13.634,0.959c-0.622-0.659-1.193-1.298-1.799-1.903c-9.669-9.677-19.345-19.347-29.013-29.024
			c-0.563-0.563-1.16-1.119-1.606-1.771c-0.918-1.34-0.72-3.097,0.372-4.182c1.204-1.196,2.959-1.332,4.362-0.271
			c0.57,0.431,1.053,0.979,1.562,1.488c9.844,9.841,19.686,19.685,29.531,29.523c0.594,0.595,1.223,1.155,1.771,1.673
			c2.55-2.487,5.007-4.671,7.212-7.087c2.815-3.085,3.731-6.784,2.899-10.919c-0.612-3.043-2.355-5.332-4.495-7.471
			c-65.856-65.828-131.696-131.673-197.539-197.517c-0.792-0.792-1.62-1.554-2.352-2.398c-2.051-2.366-4.724-3.548-7.735-3.916
			c-2.086-0.255-4.209-0.199-6.552,1.255c0.904,0.748,1.628,1.255,2.245,1.87c9.57,9.549,19.127,19.111,28.682,28.675
			c0.564,0.564,1.163,1.121,1.601,1.778c0.856,1.287,0.652,2.875-0.395,3.969c-1.154,1.205-2.762,1.447-4.134,0.5
			c-0.715-0.494-1.318-1.16-1.94-1.781c-9.733-9.725-19.466-19.451-29.181-29.195C263.214,208.213,262.747,207.444,262.061,206.551z
			 M365.563,179.732c0.988,0.995,1.985,1.982,2.964,2.986c6.596,6.771,9.263,14.818,7.549,24.144
			c-2.308,12.551-13.306,21.614-26.011,21.6c-7.587-0.008-14.004-2.806-19.347-8.145c-6.278-6.274-12.552-12.552-18.831-18.825
			c-0.613-0.613-1.249-1.205-1.97-1.897c-5.048,3.25-9.712,6.823-13.796,10.467c19.692,19.693,39.278,39.279,58.973,58.974
			c4.396-4.415,9.018-9.06,13.642-13.701c2.879-2.889,5.73-5.804,8.65-8.65c6.063-5.91,14.964-6.062,21.214-0.41
			c0.404,0.367,0.828,0.713,1.408,1.212c16.297-16.299,32.539-32.543,48.961-48.968C423.148,182.52,395.576,176.167,365.563,179.732
			z M488.363,377.624c-0.985-0.841-1.696-1.37-2.316-1.988c-6.119-6.099-12.241-12.194-18.319-18.334
			c-1.345-1.359-2.638-2.803-3.751-4.354c-6.381-8.891-6.496-21.205-0.354-30.208c6.298-9.231,17.652-13.598,28.389-10.966
			c4.952,1.214,9.174,3.655,12.739,7.275c1.029,1.045,2.087,2.063,3.131,3.093c0.166-0.11,0.332-0.221,0.498-0.331
			c3.058-29.793-3.298-57.405-19.062-82.764c-16.414,16.414-32.624,32.624-48.912,48.913c0.328,0.366,0.815,0.885,1.276,1.426
			c2.96,3.467,4.219,7.428,3.648,11.996c-0.435,3.482-1.903,6.393-4.365,8.853c-6.961,6.953-13.914,13.914-20.865,20.877
			c-0.604,0.604-1.165,1.25-1.449,1.559c19.682,19.682,39.222,39.222,58.977,58.978C481.007,387.233,484.539,382.62,488.363,377.624
			z M435.523,282.611c0.253-0.221,0.689-0.558,1.076-0.944c16.902-16.896,33.826-33.772,50.688-50.709
			c6.088-6.115,6.018-15.33-0.036-21.527c-2.904-2.973-5.858-5.898-8.813-8.821c-6.47-6.398-15.622-6.457-22.046-0.051
			c-16.809,16.763-33.579,33.565-50.359,50.357c-0.431,0.43-0.798,0.922-1.021,1.184
			C415.242,262.331,425.345,272.433,435.523,282.611z M413.595,327.907c0.263-0.219,0.711-0.539,1.095-0.921
			c7.015-7.003,14.041-13.995,21.022-21.03c3.992-4.022,3.984-8.874-0.048-12.918c-13.659-13.7-27.34-27.378-41.037-41.039
			c-4.219-4.207-9.023-4.159-13.272,0.071c-6.854,6.824-13.688,13.667-20.523,20.511c-0.491,0.492-0.916,1.05-1.192,1.371
			C377.688,291.999,395.593,309.905,413.595,327.907z M428.04,416.636c-2.163-3.364-149.21-150.157-151.063-151.234
			c0.589,1.022,0.988,1.771,1.438,2.486c8.964,14.244,19.053,27.655,29.926,40.489c12.684,14.971,26.443,28.926,40.371,42.718
			c15.981,15.827,32.557,31,50.226,44.943c8.289,6.541,16.66,12.977,25.649,18.552C425.725,415.296,426.889,415.955,428.04,416.636z
			 M491.646,371.73c0.468-0.701,0.829-1.124,1.061-1.608c2.472-5.184,5.066-10.316,7.346-15.584
			c3.054-7.054,5.028-14.46,6.62-21.975c0.278-1.314,0.083-2.224-0.928-3.163c-2.223-2.065-4.237-4.358-6.494-6.382
			c-4.804-4.31-10.478-6.104-16.845-4.924c-7.811,1.447-13.164,6.058-15.562,13.624c-2.401,7.578-0.547,14.352,4.917,20.097
			c2.367,2.489,4.849,4.868,7.277,7.298C483.158,363.235,487.278,367.358,491.646,371.73z M316.092,195.74
			c0.214,0.353,0.348,0.714,0.596,0.962c6.672,6.674,13.285,13.41,20.068,19.969c3.264,3.155,7.399,4.714,11.935,4.97
			c8.361,0.472,15.868-4.079,19.332-11.607c3.444-7.488,1.949-16.162-3.864-22.21c-1.828-1.902-3.82-3.656-5.557-5.637
			c-1.172-1.338-2.383-1.6-4.004-1.16c-4.238,1.151-8.541,2.081-12.737,3.361C332.887,187.129,324.367,190.944,316.092,195.74z"/>
		<path fill-rule="evenodd" clip-rule="evenodd" fill="#FFFFFF" d="M261.664,254.861c0.61,0.933,1.139,1.722,1.648,2.524
			c7.157,11.273,14.161,22.646,22.099,33.407c12.702,17.22,26.7,33.327,41.612,48.648c17.133,17.604,34.863,34.577,53.458,50.648
			c16.089,13.906,33.348,26.139,51.7,36.842c2.182,1.273,4.622,2.104,7.13,3.224c-0.4,0.505-0.746,0.991-1.142,1.433
			c-13.938,15.561-28.867,30.159-43.663,44.886c-11.396,11.342-22.758,22.718-34.144,34.071
			c-25.205,25.134-50.415,50.264-75.625,75.394c-1.416,1.411-2.909,2.751-4.258,4.223c-1.577,1.719-3.501,2.395-5.773,2.436
			c-5.99,0.11-11.788-0.928-17.396-2.962c-12.187-4.418-23.35-10.765-33.937-18.182c-7.49-5.248-14.217-11.404-20.967-17.537
			c-14.446-13.125-28.871-26.275-42.472-40.286c-19.361-19.943-35.637-42.111-47.523-67.309c-2.99-6.338-5.102-13.092-7.586-19.666
			c-0.791-2.093-1.375-4.268-2.239-6.327c-1.185-2.824-0.517-5.076,1.603-7.156c3.254-3.192,6.412-6.482,9.62-9.722
			c18.178-18.359,36.364-36.71,54.537-55.073c25.826-26.095,51.629-52.211,77.475-78.285c4.503-4.542,9.167-8.926,13.765-13.375
			C260.208,256.113,260.879,255.559,261.664,254.861z M228.829,354.988c0.21,2.061,0.232,4.163,0.66,6.177
			c2.461,11.577,13.117,22.834,30.583,19.749c12.721-2.247,24.49-13.162,25.54-27.731c0.592-8.209-1.675-15.588-7.662-21.403
			c-6.2-6.021-13.838-7.976-22.313-6.873C241.574,326.739,228.6,339.313,228.829,354.988z M352.498,416.868
			c-1.116,0.078-2.233,0.144-3.348,0.242c-0.556,0.049-1.113,0.128-1.658,0.244c-10.542,2.239-18.229,8.269-23.112,17.785
			c-3.271,6.377-3.936,13.109-1.73,20.014c3.973,12.437,15.843,19.417,29.251,17.216c14.684-2.411,28.349-17.178,24.643-35.534
			C374.567,427.047,365.231,416.535,352.498,416.868z M218.131,375.958c1.103-0.15,2.224-0.22,3.306-0.465
			c4.091-0.925,5.585-3.375,4.43-7.41c-1.262-4.406-3.171-8.517-6.022-12.145c-1.842-2.344-3.993-4.356-6.601-5.824
			c-3.135-1.765-6.482-2.716-10.103-2.175c-3.256,0.485-5.245,2.828-5.241,6.103c0.001,0.946,0.123,1.92,0.369,2.833
			c2.061,7.649,6.887,13.188,13.466,17.31C213.647,375.381,215.793,376.055,218.131,375.958z M349.028,490.996
			c-0.513-1.753-0.841-3.753-1.662-5.521c-2.913-6.271-7.671-10.721-14.06-13.344c-1.453-0.597-3.063-0.95-4.632-1.104
			c-4.167-0.41-7.621,2.01-8.08,5.759c-0.177,1.445,0.009,3.091,0.544,4.441c3.323,8.395,9.095,14.335,17.851,17.064
			c1.19,0.371,2.509,0.488,3.763,0.465c2.466-0.048,4.259-1.343,5.205-3.58C348.474,493.956,348.636,492.586,349.028,490.996z
			 M278.689,392.332c-5.393,6.815-8.019,14.252-6.072,22.714c1.764,7.667,6.564,12.679,14.439,14.317
			c3.164,0.658,6.375,0.488,9.524-0.262c5.079-1.208,9.563-3.492,13.249-7.33c-0.289-0.449-0.478-0.798-0.718-1.106
			c-1.554-1.992-2.17-2.136-4.47-0.976c-1.356,0.684-2.685,1.421-4.026,2.132c-3.116,1.651-6.448,2.316-9.956,2.169
			c-7.628-0.319-12.767-5.615-12.96-13.261c-0.1-3.949,1.181-7.544,2.583-11.128c1.44-3.683,1.439-3.684-0.994-6.792
			C279.193,392.688,279.042,392.61,278.689,392.332z M386.463,432.749c1.422-0.126,2.325-0.686,2.615-1.786
			c0.289-1.095-0.198-2.324-1.362-2.725c-3.155-1.086-6.345-2.081-9.554-2.996c-0.403-0.115-1.265,0.338-1.466,0.747
			c-0.594,1.214,0.829,4.375,2.171,4.775C381.374,431.511,383.928,432.096,386.463,432.749z M272.935,322.629
			c-0.376-1.449-0.736-2.977-1.178-4.48c-0.313-1.064-0.614-2.165-1.155-3.115c-0.35-0.615-1.059-1.135-1.725-1.431
			c-0.693-0.308-1.529-0.294-2.291-0.419c-1.019,1.4-1.111,2.861-0.706,4.377c0.307,1.149,0.634,2.299,1.046,3.413
			C268.123,324.209,269.663,324.665,272.935,322.629z"/>
		<path fill-rule="evenodd" clip-rule="evenodd" fill="#FFFFFF" d="M262.061,206.551c0.687,0.894,1.153,1.662,1.77,2.281
			c9.715,9.744,19.447,19.47,29.181,29.195c0.622,0.621,1.225,1.287,1.94,1.781c1.372,0.947,2.98,0.705,4.134-0.5
			c1.046-1.093,1.25-2.682,0.395-3.969c-0.438-0.657-1.037-1.213-1.601-1.778c-9.555-9.564-19.112-19.126-28.682-28.675
			c-0.617-0.615-1.341-1.122-2.245-1.87c2.342-1.454,4.465-1.51,6.552-1.255c3.011,0.368,5.684,1.55,7.735,3.916
			c0.732,0.844,1.56,1.606,2.352,2.398c65.842,65.843,131.682,131.688,197.539,197.517c2.14,2.139,3.883,4.428,4.495,7.471
			c0.832,4.135-0.084,7.834-2.899,10.919c-2.205,2.416-4.662,4.6-7.212,7.087c-0.549-0.518-1.178-1.078-1.771-1.673
			c-9.846-9.839-19.688-19.683-29.531-29.523c-0.509-0.509-0.991-1.058-1.562-1.488c-1.403-1.061-3.158-0.925-4.362,0.271
			c-1.092,1.085-1.29,2.842-0.372,4.182c0.446,0.651,1.043,1.207,1.606,1.771c9.668,9.678,19.344,19.348,29.013,29.024
			c0.605,0.605,1.177,1.244,1.799,1.903c-4.377,2.572-9.699,2.326-13.634-0.959c-3.121-2.604-5.885-5.636-8.806-8.479
			c-1.255-1.222-2.516-2.438-3.755-3.676c-62.957-62.954-125.912-125.91-188.872-188.861c-2.248-2.248-4.043-4.713-4.625-7.941
			c-0.716-3.969,0.184-7.55,2.831-10.501C256.025,212.269,258.885,209.692,262.061,206.551z"/>
		<path fill-rule="evenodd" clip-rule="evenodd" fill="#FFFFFF" d="M365.563,179.732c30.014-3.566,57.586,2.787,83.406,18.786
			c-16.422,16.425-32.664,32.668-48.961,48.968c-0.58-0.499-1.004-0.845-1.408-1.212c-6.25-5.652-15.15-5.5-21.214,0.41
			c-2.92,2.846-5.771,5.762-8.65,8.65c-4.624,4.641-9.245,9.286-13.642,13.701c-19.694-19.694-39.28-39.281-58.973-58.974
			c4.083-3.644,8.748-7.217,13.796-10.467c0.721,0.693,1.356,1.284,1.97,1.897c6.279,6.273,12.553,12.551,18.831,18.825
			c5.343,5.339,11.76,8.137,19.347,8.145c12.705,0.014,23.703-9.049,26.011-21.6c1.714-9.325-0.953-17.372-7.549-24.144
			C367.548,181.714,366.551,180.728,365.563,179.732z"/>
		<path fill-rule="evenodd" clip-rule="evenodd" fill="#FFFFFF" d="M488.363,377.624c-3.824,4.996-7.356,9.609-10.736,14.023
			c-19.755-19.756-39.295-39.296-58.977-58.978c0.284-0.308,0.846-0.954,1.449-1.559c6.951-6.963,13.904-13.924,20.865-20.877
			c2.462-2.46,3.931-5.371,4.365-8.853c0.57-4.567-0.688-8.529-3.648-11.996c-0.461-0.541-0.948-1.06-1.276-1.426
			c16.288-16.289,32.498-32.499,48.912-48.913c15.764,25.359,22.119,52.971,19.062,82.764c-0.166,0.11-0.332,0.221-0.498,0.331
			c-1.044-1.03-2.102-2.048-3.131-3.093c-3.565-3.621-7.787-6.062-12.739-7.275c-10.736-2.632-22.091,1.735-28.389,10.966
			c-6.142,9.003-6.026,21.317,0.354,30.208c1.113,1.551,2.406,2.995,3.751,4.354c6.078,6.14,12.2,12.235,18.319,18.334
			C486.667,376.254,487.378,376.783,488.363,377.624z"/>
		<path fill-rule="evenodd" clip-rule="evenodd" fill="#FFFFFF" d="M435.523,282.611c-10.179-10.178-20.281-20.28-30.512-30.511
			c0.224-0.261,0.591-0.754,1.021-1.184c16.78-16.792,33.551-33.594,50.359-50.357c6.424-6.405,15.576-6.347,22.046,0.051
			c2.955,2.922,5.909,5.848,8.813,8.821c6.054,6.197,6.124,15.412,0.036,21.527c-16.862,16.937-33.786,33.813-50.688,50.709
			C436.213,282.054,435.776,282.391,435.523,282.611z"/>
		<path fill-rule="evenodd" clip-rule="evenodd" fill="#FFFFFF" d="M413.595,327.907c-18.002-18.002-35.907-35.908-53.956-53.957
			c0.276-0.32,0.701-0.878,1.192-1.371c6.835-6.844,13.669-13.687,20.523-20.511c4.249-4.229,9.054-4.278,13.272-0.071
			c13.697,13.661,27.378,27.338,41.037,41.039c4.032,4.044,4.04,8.896,0.048,12.918c-6.981,7.035-14.008,14.027-21.022,21.03
			C414.306,327.369,413.857,327.688,413.595,327.907z"/>
		<path fill-rule="evenodd" clip-rule="evenodd" fill="#FFFFFF" d="M428.04,416.636c-1.151-0.681-2.315-1.34-3.452-2.045
			c-8.989-5.575-17.36-12.011-25.649-18.552c-17.669-13.943-34.244-29.117-50.226-44.943
			c-13.928-13.792-27.688-27.747-40.371-42.718c-10.873-12.834-20.962-26.246-29.926-40.489c-0.451-0.716-0.849-1.464-1.438-2.486
			C278.83,266.479,425.877,413.271,428.04,416.636z"/>
		<path fill-rule="evenodd" clip-rule="evenodd" fill="#FFFFFF" d="M491.646,371.73c-4.367-4.372-8.487-8.495-12.607-12.617
			c-2.429-2.43-4.91-4.81-7.277-7.298c-5.464-5.745-7.318-12.519-4.917-20.097c2.397-7.566,7.751-12.177,15.562-13.624
			c6.367-1.18,12.041,0.615,16.845,4.924c2.257,2.024,4.271,4.317,6.494,6.382c1.011,0.939,1.206,1.849,0.928,3.163
			c-1.592,7.514-3.566,14.92-6.62,21.975c-2.279,5.268-4.874,10.4-7.346,15.584C492.475,370.606,492.113,371.029,491.646,371.73z"/>
		<path fill-rule="evenodd" clip-rule="evenodd" fill="#FFFFFF" d="M316.092,195.74c8.275-4.796,16.795-8.611,25.769-11.35
			c4.196-1.281,8.499-2.21,12.737-3.361c1.621-0.44,2.832-0.179,4.004,1.16c1.736,1.981,3.729,3.734,5.557,5.637
			c5.813,6.048,7.309,14.722,3.864,22.21c-3.464,7.528-10.971,12.079-19.332,11.607c-4.535-0.256-8.671-1.815-11.935-4.97
			c-6.783-6.56-13.396-13.295-20.068-19.969C316.439,196.455,316.306,196.093,316.092,195.74z"/>
		<path fill-rule="evenodd" clip-rule="evenodd" d="M228.829,354.988c-0.229-15.675,12.745-28.249,26.81-30.08
			c8.474-1.104,16.113,0.852,22.313,6.873c5.987,5.815,8.253,13.193,7.662,21.403c-1.05,14.569-12.819,25.484-25.54,27.731
			c-17.466,3.085-28.123-8.172-30.583-19.749C229.061,359.15,229.039,357.049,228.829,354.988z M262.96,336.035
			c-0.032-3.338-1.886-5.815-4.729-6.319c-5.659-1.003-10.5,3.951-9.373,9.593c0.467,2.336,2.425,4.487,4.433,4.87
			C258.147,345.104,263.008,341.01,262.96,336.035z"/>
		<path fill-rule="evenodd" clip-rule="evenodd" d="M352.498,416.868c12.733-0.333,22.069,10.179,24.045,19.967
			c3.706,18.356-9.959,33.123-24.643,35.534c-13.408,2.201-25.278-4.779-29.251-17.216c-2.205-6.904-1.541-13.637,1.73-20.014
			c4.883-9.517,12.57-15.546,23.112-17.785c0.545-0.116,1.103-0.195,1.658-0.244C350.265,417.012,351.382,416.946,352.498,416.868z
			 M341.362,430.499c0.027,3.051,0.962,5.146,3.354,6.355c2.395,1.211,4.774,1.138,7.018-0.402c2.286-1.569,3.679-3.763,4.064-6.495
			c0.343-2.422-0.228-4.654-2.248-6.213c-2.047-1.578-4.411-1.92-6.767-0.849C343.373,424.447,341.58,427.204,341.362,430.499z"/>
		<path fill-rule="evenodd" clip-rule="evenodd" d="M218.131,375.958c-2.338,0.097-4.484-0.577-6.396-1.774
			c-6.58-4.121-11.405-9.661-13.466-17.31c-0.246-0.913-0.368-1.887-0.369-2.833c-0.004-3.275,1.985-5.618,5.241-6.103
			c3.621-0.541,6.968,0.411,10.103,2.175c2.608,1.468,4.759,3.48,6.601,5.824c2.852,3.628,4.76,7.739,6.022,12.145
			c1.155,4.034-0.338,6.484-4.43,7.41C220.355,375.738,219.234,375.808,218.131,375.958z"/>
		<path fill-rule="evenodd" clip-rule="evenodd" d="M349.028,490.996c-0.393,1.59-0.555,2.96-1.071,4.18
			c-0.946,2.237-2.739,3.532-5.205,3.58c-1.254,0.023-2.572-0.094-3.763-0.465c-8.756-2.729-14.527-8.67-17.851-17.064
			c-0.535-1.351-0.721-2.996-0.544-4.441c0.459-3.749,3.913-6.169,8.08-5.759c1.568,0.154,3.179,0.508,4.632,1.104
			c6.389,2.623,11.146,7.073,14.06,13.344C348.188,487.243,348.516,489.243,349.028,490.996z"/>
		<path fill-rule="evenodd" clip-rule="evenodd" d="M278.689,392.332c0.353,0.279,0.503,0.357,0.598,0.479
			c2.433,3.107,2.434,3.109,0.994,6.792c-1.402,3.584-2.682,7.179-2.583,11.128c0.194,7.646,5.332,12.941,12.96,13.261
			c3.508,0.147,6.84-0.518,9.956-2.169c1.342-0.711,2.67-1.448,4.026-2.132c2.3-1.16,2.916-1.017,4.47,0.976
			c0.24,0.309,0.429,0.657,0.718,1.106c-3.686,3.838-8.17,6.122-13.249,7.33c-3.149,0.75-6.36,0.92-9.524,0.262
			c-7.875-1.639-12.675-6.65-14.439-14.317C270.671,406.584,273.296,399.146,278.689,392.332z"/>
		<path fill-rule="evenodd" clip-rule="evenodd" d="M386.463,432.749c-2.535-0.653-5.089-1.238-7.596-1.984
			c-1.342-0.4-2.765-3.562-2.171-4.775c0.201-0.409,1.063-0.862,1.466-0.747c3.209,0.915,6.398,1.91,9.554,2.996
			c1.164,0.4,1.651,1.63,1.362,2.725C388.788,432.063,387.885,432.623,386.463,432.749z"/>
		<path fill-rule="evenodd" clip-rule="evenodd" d="M272.935,322.629c-3.272,2.036-4.812,1.581-6.009-1.655
			c-0.412-1.114-0.74-2.264-1.046-3.413c-0.405-1.516-0.313-2.978,0.706-4.377c0.762,0.125,1.598,0.111,2.291,0.419
			c0.667,0.295,1.375,0.815,1.725,1.431c0.541,0.951,0.843,2.051,1.155,3.115C272.198,319.652,272.558,321.18,272.935,322.629z"/>
		<path fill-rule="evenodd" clip-rule="evenodd" fill="#FFFFFF" d="M262.96,336.035c0.048,4.975-4.813,9.069-9.668,8.144
			c-2.007-0.382-3.965-2.533-4.433-4.87c-1.128-5.642,3.713-10.597,9.373-9.593C261.074,330.22,262.928,332.697,262.96,336.035z"/>
		<path fill-rule="evenodd" clip-rule="evenodd" fill="#FFFFFF" d="M341.362,430.499c0.218-3.295,2.011-6.052,5.422-7.604
			c2.355-1.071,4.72-0.729,6.767,0.849c2.021,1.559,2.591,3.791,2.248,6.213c-0.386,2.732-1.778,4.926-4.064,6.495
			c-2.243,1.54-4.623,1.613-7.018,0.402C342.324,435.645,341.39,433.55,341.362,430.499z"/>
	</g>
</g>
</svg>