<?xml version="1.0" encoding="utf-8"?>
<!-- Generator: Adobe Illustrator 16.0.0, SVG Export Plug-In . SVG Version: 6.00 Build 0)  -->
<!DOCTYPE svg PUBLIC "-//W3C//DTD SVG 1.1//EN" "http://www.w3.org/Graphics/SVG/1.1/DTD/svg11.dtd">
<svg version="1.1" id="Layer_1" xmlns="http://www.w3.org/2000/svg" xmlns:xlink="http://www.w3.org/1999/xlink" x="0px" y="0px"
	 width="612px" height="792px" viewBox="0 0 612 792" enable-background="new 0 0 612 792" xml:space="preserve">
<g>
	<g>
		<path fill-rule="evenodd" clip-rule="evenodd" fill="#FFFFFF" d="M-198,894.871c0-341.623,0-683.247,0-1024.87
			C143.623-130,485.247-130,826.87-130c0.001,341.623,0.001,683.247,0.001,1024.87C485.248,894.871,143.624,894.871-198,894.871z
			 M556.935,404.981c7.877,4.983,14.486,5.805,21.476,3.225c7.677-2.834,13.094-8.278,17.675-14.816
			c10.741-15.33,15.728-31.644,9.238-50.173c-6.243-17.826-15.671-33.922-26.728-49.074c-8.98-12.306-18.408-24.287-27.744-36.33
			c-2.156-2.782-3.047-5.349-2.085-9.019c4.431-16.9,1.887-33.336-4.535-49.221c-8.965-22.176-24.159-39.573-43.219-53.566
			c-13.741-10.087-29.257-16.499-46.52-16.106c-8.432,0.191-16.849,2.702-25.184,4.56c-2.906,0.648-4.909,0.385-7.139-1.628
			c-4.31-3.891-8.968-7.394-13.359-11.199c-18.016-15.606-36.827-30.102-58.09-41.086c-11.228-5.802-22.833-8.847-35.538-4.52
			c-14.154,4.82-25.363,13.499-34.18,25.286c-4.008,5.358-7.414,11.711-5.864,18.49c1.271,5.555-1.332,8.303-4.511,11.505
			c-39.545,39.844-79.174,79.609-118.577,119.596c-48.057,48.769-95.962,97.688-143.739,146.731
			c-2.381,2.444-4.01,6.65-4.119,10.097c-0.442,13.924,4.587,26.768,9.719,39.338c16.883,41.35,41.795,77.63,71.989,110.252
			c25.451,27.497,52.214,53.707,81.488,77.207c14.984,12.029,30.377,23.486,47.629,32.178c17.276,8.701,35.141,15.056,54.913,13.864
			c6.59-0.397,12.446-1.254,17.782-6.607c34.923-35.046,70.316-69.621,105.458-104.449c48.276-47.845,96.505-95.74,144.65-143.715
			C544.535,419.11,550.668,411.838,556.935,404.981z"/>
		<path fill-rule="evenodd" clip-rule="evenodd" d="M556.935,404.981c-6.267,6.856-12.399,14.129-19.112,20.819
			c-48.146,47.975-96.374,95.87-144.65,143.715c-35.143,34.828-70.535,69.403-105.458,104.449
			c-5.335,5.354-11.192,6.21-17.782,6.607c-19.772,1.191-37.637-5.163-54.913-13.864c-17.252-8.691-32.645-20.148-47.629-32.178
			c-29.274-23.5-56.037-49.71-81.488-77.207c-30.194-32.622-55.105-68.902-71.989-110.252c-5.132-12.57-10.162-25.414-9.719-39.338
			c0.109-3.446,1.738-7.652,4.119-10.097c47.776-49.043,95.682-97.962,143.739-146.731c39.402-39.987,79.031-79.752,118.577-119.596
			c3.18-3.203,5.782-5.951,4.511-11.505c-1.55-6.779,1.855-13.132,5.864-18.49c8.817-11.787,20.026-20.466,34.18-25.286
			c12.705-4.327,24.311-1.282,35.538,4.52c21.263,10.985,40.074,25.48,58.09,41.086c4.392,3.805,9.05,7.308,13.359,11.199
			c2.229,2.013,4.232,2.276,7.139,1.628c8.335-1.858,16.752-4.369,25.184-4.56c17.263-0.393,32.778,6.019,46.52,16.106
			c19.06,13.993,34.254,31.391,43.219,53.566c6.422,15.885,8.966,32.321,4.535,49.221c-0.962,3.67-0.071,6.237,2.085,9.019
			c9.336,12.042,18.764,24.023,27.744,36.33c11.057,15.151,20.484,31.248,26.728,49.074c6.489,18.53,1.503,34.843-9.238,50.173
			c-4.581,6.538-9.998,11.982-17.675,14.816C571.421,410.786,564.812,409.965,556.935,404.981z M250.102,180.716
			c-5.147,4.838-10.642,9.69-15.785,14.888C164.935,265.701,95.614,335.859,26.21,405.936c-2.564,2.589-4.265,5.055-2.93,8.716
			c4.659,12.782,8.354,26.031,14.208,38.242c17.914,37.361,42.366,70.365,71.436,99.68c21.41,21.591,44.003,42.04,66.567,62.447
			c17.036,15.407,36.186,27.951,57.128,37.537c11.916,5.455,24.284,9.45,37.638,8.724c1.885-0.103,4.163-1.009,5.483-2.321
			c66.016-65.693,131.991-131.426,197.84-197.285c10.327-10.33,20.034-21.281,29.686-31.579c-2.609-1.066-7.02-2.192-10.697-4.492
			c-14.313-8.949-28.973-17.497-42.441-27.61c-32.494-24.396-62.159-52.092-91.028-80.65c-29.848-29.529-57.959-60.57-82.067-95.013
			C267.462,208.66,258.859,194.313,250.102,180.716z M542.869,393.166c-1.94-0.742-3.025-1.067-4.031-1.554
			c-8.78-4.253-17.913-7.923-26.248-12.923c-25.787-15.468-48.285-35.277-70.314-55.509
			c-36.304-33.339-70.962-68.373-103.02-105.824c-13.572-15.854-25.819-32.906-37.853-49.988c-5.513-7.825-9.055-17.038-13.4-25.445
			c-9.232,9.067-18.666,18.211-27.878,27.572c-0.882,0.895-1.03,3.446-0.426,4.703c2.293,4.766,4.94,9.372,7.625,13.937
			c22.037,37.45,49.446,70.776,79.527,101.892c34.571,35.762,70.338,70.302,110.125,100.362
			c14.041,10.609,28.318,20.905,44.732,27.771c11.526,4.819,11.487,4.957,20.243-3.846
			C528.73,407.498,535.472,400.647,542.869,393.166z M294.936,114.926c5.452,1.647,10.738,2.872,15.743,4.821
			c29.173,11.359,54.363,29.354,77.668,49.615c24.703,21.478,48.273,44.312,71.625,67.28c28.324,27.857,56.958,55.56,79.833,88.328
			c12.549,17.974,24.516,36.389,28.702,58.562c1.134,6.006,4.082,6.989,8.698,2.773c6.082-5.555,9.663-12.564,10.737-20.809
			c1.617-12.417-3.318-23.104-8.917-33.566c-14.631-27.333-34.058-51.343-54.801-73.962c-25.176-27.453-51.803-53.633-78.714-79.412
			c-16.419-15.728-34.161-30.161-52.035-44.255c-16.013-12.627-32.561-24.709-49.714-35.719
			C326.161,87.283,303.499,95.438,294.936,114.926z M446.614,149.901c31.137,24.263,58.135,51.081,82.805,81.19
			C532.876,198.458,491.21,146.555,446.614,149.901z"/>
		<path fill-rule="evenodd" clip-rule="evenodd" fill="#FFFFFF" d="M250.102,180.716c8.757,13.597,17.36,27.944,26.929,41.615
			c24.108,34.443,52.22,65.484,82.067,95.013c28.869,28.558,58.534,56.253,91.028,80.65c13.469,10.113,28.129,18.661,42.441,27.61
			c3.678,2.3,8.088,3.426,10.697,4.492c-9.651,10.298-19.358,21.249-29.686,31.579c-65.849,65.859-131.824,131.592-197.84,197.285
			c-1.32,1.313-3.598,2.219-5.483,2.321c-13.354,0.727-25.722-3.269-37.638-8.724c-20.943-9.586-40.093-22.13-57.128-37.537
			c-22.563-20.407-45.157-40.856-66.567-62.447c-29.07-29.314-53.522-62.318-71.436-99.68c-5.854-12.211-9.549-25.46-14.208-38.242
			c-1.334-3.661,0.366-6.127,2.93-8.716c69.403-70.076,138.724-140.234,208.106-210.332
			C239.46,190.406,244.955,185.554,250.102,180.716z M203.611,323.55c-0.749,18.617,13.316,32.452,25.132,35.66
			c21.42,5.814,41.139-5.405,50.189-21.261c10.928-19.144,4.669-44.02-13.263-53.435C237.699,269.83,202.699,292.784,203.611,323.55
			z M371.831,490.903c25.86-0.104,49.077-25.602,41.107-53.876c-3.545-12.575-14.818-22.922-26.383-25.065
			c-20.193-3.743-40.607,9.37-48.337,27.9C327.883,464.641,345.409,491.184,371.831,490.903z M185.151,352.801
			c12.045,0.845,16.363-3.757,13.89-11.492c-1.874-5.861-4.575-11.836-8.355-16.616c-5.068-6.407-11.833-11.214-20.594-11.75
			c-7.677-0.47-12.284,4.9-10.392,12.248c0.776,3.016,1.675,6.16,3.287,8.772C169.071,343.834,177.115,351.25,185.151,352.801z
			 M374.121,517.112c-0.013-12.105-14.757-27.267-27.867-28.656c-9.5-1.007-15.054,6.387-11.124,15.446
			c4.903,11.307,13.05,19.49,25.047,23.326C368.24,529.808,374.13,525.502,374.121,517.112z M274.624,376.164
			c-12.34,14.217-13.479,35.448-0.444,47.058c12.996,11.572,34.453,5.863,44.594-5.062c-3.72-4.896-3.684-4.828-8.784-2.13
			c-3.047,1.611-6.095,3.438-9.37,4.358c-16.014,4.499-29.637-4.503-27.44-22.212c0.712-5.747,3.555-11.23,5.307-16.485
			C277.277,379.961,275.972,378.091,274.624,376.164z M414.928,422.792c-0.47,0.537-0.94,1.073-1.411,1.609
			c0.718,2.156,0.878,5.644,2.258,6.222c4.11,1.724,8.674,2.471,13.127,3.18c0.818,0.131,2.551-1.576,2.767-2.655
			c0.213-1.065-0.679-3.172-1.573-3.503C425.121,425.805,420,424.368,414.928,422.792z M266.269,277.332
			c-1.135-3.857-1.958-8.107-3.748-11.903c-0.588-1.249-3.675-1.322-5.619-1.933c-0.402,1.408-1.197,2.84-1.111,4.218
			c0.122,1.94,0.846,3.853,1.403,5.752C258.441,277.721,260.26,281.039,266.269,277.332z"/>
		<path fill-rule="evenodd" clip-rule="evenodd" fill="#FFFFFF" d="M542.869,393.166c-7.397,7.482-14.139,14.333-20.918,21.147
			c-8.756,8.803-8.717,8.665-20.243,3.846c-16.414-6.865-30.691-17.161-44.732-27.771c-39.787-30.061-75.554-64.6-110.125-100.362
			c-30.081-31.115-57.491-64.441-79.527-101.892c-2.685-4.565-5.332-9.171-7.625-13.937c-0.604-1.257-0.456-3.808,0.426-4.703
			c9.213-9.36,18.646-18.504,27.878-27.572c4.345,8.407,7.888,17.62,13.4,25.445c12.034,17.082,24.281,34.133,37.853,49.988
			c32.058,37.451,66.716,72.484,103.02,105.824c22.029,20.232,44.527,40.041,70.314,55.509c8.335,5,17.468,8.67,26.248,12.923
			C539.844,392.099,540.929,392.424,542.869,393.166z"/>
		<path fill-rule="evenodd" clip-rule="evenodd" fill="#FFFFFF" d="M294.936,114.926c8.563-19.489,31.225-27.643,48.826-16.346
			c17.153,11.01,33.701,23.092,49.714,35.719c17.874,14.094,35.616,28.527,52.035,44.255c26.911,25.779,53.538,51.959,78.714,79.412
			c20.743,22.619,40.17,46.629,54.801,73.962c5.599,10.461,10.534,21.149,8.917,33.566c-1.074,8.245-4.655,15.254-10.737,20.809
			c-4.616,4.216-7.564,3.233-8.698-2.773c-4.187-22.173-16.153-40.588-28.702-58.562c-22.875-32.768-51.509-60.47-79.833-88.328
			c-23.352-22.968-46.922-45.802-71.625-67.28c-23.305-20.261-48.495-38.256-77.668-49.615
			C305.674,117.798,300.388,116.573,294.936,114.926z M319.514,104.706c-1.784,5.96,0.488,8.088,5.096,10.027
			c8.058,3.391,15.997,7.312,23.415,11.928c23.587,14.679,45,32.268,66.13,50.237c35.183,29.919,68.145,62.124,98.266,97.082
			c16.024,18.597,30.663,38.417,45.376,58.098c5.023,6.721,8.165,14.825,12.64,22.002c0.898,1.441,4.08,2.367,5.968,2.058
			c2.528-0.413,2.711-2.731,1.445-5.044c-4.835-8.847-9.074-18.065-14.474-26.547c-15.937-25.032-35.331-47.426-55.42-69.104
			c-28.718-30.992-58.665-60.758-91.203-87.866c-22.823-19.014-45.45-38.205-71.516-52.757
			C337.173,110.316,328.843,106.288,319.514,104.706z"/>
		<path fill-rule="evenodd" clip-rule="evenodd" fill="#FFFFFF" d="M446.614,149.901c44.596-3.346,86.262,48.556,82.805,81.19
			C504.749,200.982,477.751,174.164,446.614,149.901z"/>
		<path fill-rule="evenodd" clip-rule="evenodd" d="M203.611,323.55c-0.912-30.767,34.088-53.721,62.059-39.036
			c17.932,9.415,24.191,34.292,13.263,53.435c-9.05,15.855-28.769,27.075-50.189,21.261
			C216.927,356.002,202.862,342.167,203.611,323.55z M231.718,298.929c0.009,4.831,4.258,9.629,8.635,8.943
			c5.73-0.898,11.698-3.876,11.625-11.743c-0.048-5.163-3.635-9.053-8.423-9.039C236.719,287.11,231.706,292.124,231.718,298.929z"
			/>
		<path fill-rule="evenodd" clip-rule="evenodd" d="M371.831,490.903c-26.422,0.28-43.948-26.263-33.612-51.041
			c7.729-18.53,28.144-31.644,48.337-27.9c11.564,2.144,22.838,12.49,26.383,25.065C420.908,465.302,397.691,490.8,371.831,490.903z
			 M384.142,428.955c0.246-5.628-3.255-9.52-8.846-9.832c-5.623-0.314-11.463,5.599-11.688,11.835
			c-0.207,5.735,3.666,9.766,9.47,9.854C378.427,440.895,383.875,435.054,384.142,428.955z"/>
		<path fill-rule="evenodd" clip-rule="evenodd" d="M185.151,352.801c-8.036-1.551-16.08-8.967-22.165-18.838
			c-1.611-2.612-2.51-5.756-3.287-8.772c-1.892-7.348,2.715-12.717,10.392-12.248c8.761,0.536,15.526,5.343,20.594,11.75
			c3.781,4.78,6.481,10.755,8.355,16.616C201.514,349.043,197.196,353.646,185.151,352.801z"/>
		<path fill-rule="evenodd" clip-rule="evenodd" d="M374.121,517.112c0.009,8.39-5.881,12.695-13.944,10.116
			c-11.997-3.836-20.144-12.02-25.047-23.326c-3.93-9.06,1.624-16.453,11.124-15.446
			C359.364,489.846,374.108,505.007,374.121,517.112z"/>
		<path fill-rule="evenodd" clip-rule="evenodd" d="M274.624,376.164c1.348,1.927,2.653,3.797,3.862,5.527
			c-1.751,5.255-4.594,10.738-5.307,16.485c-2.197,17.709,11.426,26.711,27.44,22.212c3.275-0.92,6.323-2.747,9.37-4.358
			c5.101-2.698,5.064-2.767,8.784,2.13c-10.141,10.925-31.598,16.634-44.594,5.062C261.145,411.612,262.284,390.381,274.624,376.164
			z"/>
		<path fill-rule="evenodd" clip-rule="evenodd" d="M414.928,422.792c5.072,1.576,10.193,3.013,15.167,4.853
			c0.895,0.331,1.786,2.438,1.573,3.503c-0.216,1.079-1.948,2.786-2.767,2.655c-4.453-0.709-9.017-1.456-13.127-3.18
			c-1.38-0.578-1.54-4.065-2.258-6.222C413.987,423.865,414.458,423.329,414.928,422.792z"/>
		<path fill-rule="evenodd" clip-rule="evenodd" d="M266.269,277.332c-6.009,3.708-7.827,0.39-9.075-3.866
			c-0.558-1.899-1.281-3.812-1.403-5.752c-0.086-1.378,0.709-2.811,1.111-4.218c1.944,0.611,5.031,0.684,5.619,1.933
			C264.31,269.224,265.133,273.475,266.269,277.332z"/>
		<path fill-rule="evenodd" clip-rule="evenodd" d="M319.514,104.706c9.329,1.582,17.659,5.61,25.723,10.113
			c26.065,14.552,48.692,33.743,71.516,52.757c32.538,27.108,62.485,56.874,91.203,87.866c20.089,21.678,39.483,44.071,55.42,69.104
			c5.399,8.482,9.639,17.701,14.474,26.547c1.266,2.313,1.083,4.631-1.445,5.044c-1.888,0.31-5.069-0.616-5.968-2.058
			c-4.475-7.177-7.616-15.281-12.64-22.002c-14.713-19.681-29.352-39.501-45.376-58.098c-30.121-34.958-63.083-67.163-98.266-97.082
			c-21.13-17.969-42.543-35.558-66.13-50.237c-7.418-4.617-15.357-8.537-23.415-11.928
			C320.002,112.794,317.729,110.666,319.514,104.706z"/>
		<path fill-rule="evenodd" clip-rule="evenodd" fill="#FFFFFF" d="M231.718,298.929c-0.013-6.805,5-11.819,11.837-11.838
			c4.788-0.015,8.375,3.875,8.423,9.039c0.072,7.866-5.896,10.845-11.625,11.743C235.977,308.558,231.727,303.76,231.718,298.929z"
			/>
		<path fill-rule="evenodd" clip-rule="evenodd" fill="#FFFFFF" d="M384.142,428.955c-0.267,6.099-5.715,11.939-11.063,11.857
			c-5.804-0.089-9.677-4.119-9.47-9.854c0.225-6.236,6.064-12.149,11.688-11.835C380.887,419.436,384.388,423.327,384.142,428.955z"
			/>
	</g>
</g>
</svg>
