<?xml version="1.0" encoding="UTF-8"?>
<svg id="Layer_2" xmlns="http://www.w3.org/2000/svg" viewBox="0 0 261.84 131.57">
<defs>

</defs><g id="Layer_1-2"><g>
<path  d="M74.87,13.46C67,5.55,56.11,.65,44.07,.65,20.09,.65,.65,20.09,.65,44.07c0,12.05,4.91,22.96,12.84,30.83l43.2,43.21c7.86,7.91,18.76,12.81,30.8,12.81s22.85-4.86,30.7-12.72l.06-.06,.03-.03,3.6-3.6c.48-.48,.63-1.19,.4-1.82l-9.06-24.88,30.3,30.3c7.86,7.91,18.76,12.81,30.8,12.81s22.93-4.9,30.8-12.81l43.2-43.21c7.93-7.87,12.84-18.78,12.84-30.83,0-23.98-19.44-43.42-43.42-43.42-12.04,0-22.93,4.9-30.8,12.81l-11.4,11.4c-.68,.68-1.78,.68-2.46,0l-11.4-11.4c-7.86-7.91-18.76-12.81-30.8-12.81s-22.93,4.9-30.8,12.81l-11.4,11.4c-.68,.68-1.78,.68-2.46,0l-11.4-11.4Z"/><path d="M122.35,114.97c.66-.66,.87-1.63,.56-2.51l-1.22,.45c.14,.4,.05,.84-.25,1.14l.92,.92ZM175.11,24.4c-.42,.42-1.11,.42-1.54,0l-.92,.92c.93,.93,2.44,.93,3.38,0l-.92-.92Zm-86.84,0c-.42,.42-1.11,.42-1.54,0l-.92,.92c.93,.93,2.44,.93,3.38,0l-.92-.92Zm55.74,93.25l-30.3-30.3-.92,.92,30.3,30.3,.92-.92ZM74.41,13.92l11.4,11.4,.92-.92-11.4-11.4-.92,.92Zm14.78,11.4l11.4-11.4-.92-.92-11.4,11.4,.92,.92Zm11.4-11.4c7.75-7.79,18.48-12.62,30.33-12.62V0c-12.22,0-23.28,4.97-31.26,13l.92,.92ZM130.92,1.3c11.86,0,22.59,4.82,30.33,12.62l.92-.92c-7.98-8.03-19.04-13-31.26-13V1.3Zm30.33,12.62l11.4,11.4,.92-.92-11.4-11.4-.92,.92Zm14.78,11.4l11.4-11.4-.92-.92-11.4,11.4,.92,.92Zm11.4-11.4c7.75-7.79,18.48-12.62,30.33-12.62V0c-12.22,0-23.28,4.97-31.26,13l.92,.92ZM217.76,1.3c23.62,0,42.77,19.15,42.77,42.77h1.3c0-24.34-19.73-44.07-44.07-44.07V1.3Zm42.77,42.77c0,11.87-4.84,22.62-12.65,30.37l.92,.92c8.05-7.98,13.04-19.06,13.04-31.29h-1.3Zm-12.65,30.37l-43.2,43.21,.92,.92,43.2-43.21-.92-.92Zm-43.21,43.21c-7.75,7.79-18.48,12.62-30.33,12.62v1.3c12.22,0,23.28-4.97,31.26-13l-.92-.92Zm-30.33,12.62c-11.86,0-22.59-4.82-30.33-12.62l-.92,.92c7.98,8.03,19.04,13,31.26,13v-1.3Zm-61.71-42.24l9.06,24.88,1.22-.45-9.06-24.88-1.22,.45Zm8.8,26.02l-3.6,3.6,.92,.92,3.6-3.6-.92-.92Zm-3.6,3.6l-.03,.03,.92,.92,.03-.03-.92-.92Zm-.03,.03l-.06,.06,.92,.92,.06-.06-.92-.92Zm-.06,.06c-7.74,7.74-18.43,12.53-30.24,12.53v1.3c12.17,0,23.19-4.93,31.16-12.91l-.92-.92Zm-30.24,12.53c-11.86,0-22.59-4.82-30.33-12.62l-.92,.92c7.98,8.03,19.04,13,31.26,13v-1.3Zm-30.33-12.62L13.96,74.44l-.92,.92,43.2,43.21,.92-.92ZM13.95,74.44C6.14,66.69,1.3,55.95,1.3,44.07H0c0,12.24,4.99,23.31,13.04,31.29l.92-.92ZM1.3,44.07C1.3,20.45,20.45,1.3,44.07,1.3V0C19.73,0,0,19.73,0,44.07H1.3ZM44.07,1.3c11.86,0,22.59,4.82,30.33,12.62l.92-.92C67.35,4.97,56.29,0,44.07,0V1.3ZM122.3,112.68l.61-.22-.61,.22Zm-.4,1.82l.46,.46-.46-.46ZM173.11,24.86l.46-.46-.46,.46Zm2.46,0l-.46-.46,.46,.46Zm-89.3,0l.46-.46-.46,.46Zm2.46,0l-.46-.46,.46,.46Zm11.4-11.4l.46,.46h0l-.46-.46Zm61.59,0l-.46,.46h0l.46-.46Zm25.25,0l.46,.46h0l-.46-.46Zm61.37,61.44l-.46-.46h0l.46,.46Zm-43.2,43.21l-.46-.46h0l.46,.46Zm-61.59,0l.46-.46h0l-.46,.46Zm-30.3-30.3l.46-.46-1.07,.68,.61-.22Zm5.05,30.3l-.46-.46h0l.46,.46Zm-.03,.03l.46,.46h0l-.46-.46Zm-.06,.06l.46,.46h0l-.46-.46Zm-61.5-.09l.46-.46h0l-.46,.46ZM13.5,74.9l.46-.46h0l-.46,.46ZM74.87,13.46l-.46,.46h0l.46-.46Z"/>
</g>
</g>
</svg>