<?xml version="1.0" encoding="UTF-8"?><svg id="Layer_2" xmlns="http://www.w3.org/2000/svg" viewBox="0 0 261.37 130.68"><g id="Layer_1-2"><path d="M74.46,12.85C66.57,4.91,55.64,0,43.56,0,19.5,0,0,19.5,0,43.56c0,12.09,4.93,23.04,12.89,30.93l43.34,43.34c7.89,7.94,18.82,12.85,30.89,12.85s22.92-4.88,30.8-12.76l.06-.06,.03-.03,3.61-3.61c.48-.48,.64-1.19,.41-1.83l-9.08-24.96,30.4,30.4c7.89,7.94,18.82,12.85,30.89,12.85s23-4.91,30.89-12.85l43.34-43.34c7.96-7.89,12.89-18.84,12.89-30.93,0-24.06-19.5-43.56-43.56-43.56-12.08,0-23,4.91-30.89,12.85l-11.44,11.44c-.68,.68-1.78,.68-2.46,0l-11.44-11.44c-7.89-7.94-18.82-12.85-30.89-12.85s-23,4.91-30.89,12.85l-11.44,11.44c-.68,.68-1.78,.68-2.46,0l-11.44-11.44Z"/></g></svg>